<svg width="46" height="46" viewBox="0 0 46 46" fill="none" xmlns="http://www.w3.org/2000/svg">
<rect x="3" y="3" width="40" height="40" rx="20" fill="#D1E9FF"/>
<rect x="3" y="3" width="40" height="40" rx="20" stroke="#EFF8FF" stroke-width="6"/>
<g clip-path="url(#clip0_9713_19598)">
<path d="M17.1087 17.1077L20.642 20.641M25.3587 25.3577L28.892 28.891M28.892 17.1077L25.3587 20.641L28.3003 17.6993M17.1087 28.891L20.642 25.3577M31.3337 22.9993C31.3337 27.6017 27.6027 31.3327 23.0003 31.3327C18.398 31.3327 14.667 27.6017 14.667 22.9993C14.667 18.397 18.398 14.666 23.0003 14.666C27.6027 14.666 31.3337 18.397 31.3337 22.9993ZM26.3337 22.9993C26.3337 24.8403 24.8413 26.3327 23.0003 26.3327C21.1594 26.3327 19.667 24.8403 19.667 22.9993C19.667 21.1584 21.1594 19.666 23.0003 19.666C24.8413 19.666 26.3337 21.1584 26.3337 22.9993Z" stroke="#1570EF" stroke-width="1.66667" stroke-linecap="round" stroke-linejoin="round"/>
</g>
<defs>
<clipPath id="clip0_9713_19598">
<rect width="20" height="20" fill="white" transform="translate(13 13)"/>
</clipPath>
</defs>
</svg>
