<svg width="46" height="32" viewBox="0 0 46 32" fill="none" xmlns="http://www.w3.org/2000/svg">
<rect x="0.5" y="0.5" width="45" height="31" rx="3.5" fill="white"/>
<rect x="0.5" y="0.5" width="45" height="31" rx="3.5" stroke="#F2F4F7"/>
<path fill-rule="evenodd" clip-rule="evenodd" d="M19.485 24.5984L19.7793 22.6662L19.1237 22.6504H15.9932L18.1688 8.39225C18.1756 8.34907 18.1975 8.30899 18.2295 8.28048C18.2617 8.25197 18.3026 8.23633 18.3455 8.23633H23.6242C25.3767 8.23633 26.5861 8.61318 27.2174 9.3571C27.5134 9.70609 27.7019 10.0709 27.7932 10.4722C27.8889 10.8933 27.8905 11.3964 27.7972 12.0102L27.7904 12.0548V12.4481L28.0864 12.6215C28.3356 12.7582 28.5338 12.9146 28.6857 13.0936C28.9389 13.3921 29.1027 13.7714 29.1719 14.2209C29.2434 14.6833 29.2198 15.2337 29.1027 15.8567C28.9676 16.5733 28.7493 17.1974 28.4543 17.708C28.1832 18.1786 27.8377 18.5689 27.4274 18.8713C27.0356 19.1587 26.5703 19.3769 26.0441 19.5165C25.5342 19.6537 24.9528 19.723 24.3152 19.723H23.9044C23.6108 19.723 23.3254 19.8323 23.1014 20.0283C22.8768 20.2284 22.7283 20.5017 22.6828 20.8007L22.6517 20.9747L22.1317 24.3804L22.1082 24.5053C22.1019 24.5449 22.0912 24.5646 22.0754 24.578C22.0614 24.5902 22.0412 24.5984 22.0215 24.5984H19.485Z" fill="#28356A"/>
<path fill-rule="evenodd" clip-rule="evenodd" d="M28.3668 12.0996C28.3512 12.2037 28.3331 12.3101 28.3129 12.4194C27.6168 16.1136 25.2351 17.3898 22.1934 17.3898H20.6447C20.2727 17.3898 19.9591 17.6689 19.9013 18.0482L18.8838 24.7192C18.8461 24.9683 19.0318 25.1927 19.2749 25.1927H22.0218C22.347 25.1927 22.6233 24.9485 22.6745 24.6169L22.7015 24.4727L23.2187 21.0804L23.2519 20.8944C23.3025 20.5617 23.5795 20.3173 23.9047 20.3173H24.3155C26.9768 20.3173 29.0602 19.2006 29.6692 15.9688C29.9234 14.6188 29.7918 13.4915 29.1187 12.6987C28.915 12.4597 28.6624 12.2612 28.3668 12.0996Z" fill="#298FC2"/>
<path fill-rule="evenodd" clip-rule="evenodd" d="M27.6388 11.7993C27.5324 11.7672 27.4226 11.7382 27.3101 11.7119C27.1969 11.6863 27.0811 11.6637 26.9617 11.6438C26.5442 11.5741 26.0866 11.541 25.5965 11.541H21.4591C21.3571 11.541 21.2603 11.5648 21.1738 11.6078C20.9829 11.7026 20.8412 11.8894 20.8068 12.1179L19.9266 17.88L19.9014 18.048C19.9592 17.6687 20.2727 17.3896 20.6448 17.3896H22.1935C25.2352 17.3896 27.6168 16.1127 28.313 12.4192C28.3338 12.3099 28.3513 12.2035 28.3669 12.0994C28.1908 12.0027 28.0001 11.9201 27.7947 11.8498C27.7439 11.8323 27.6916 11.8155 27.6388 11.7993Z" fill="#22284F"/>
<path fill-rule="evenodd" clip-rule="evenodd" d="M20.8069 12.1188C20.8412 11.8902 20.9829 11.7035 21.1738 11.6093C21.261 11.5662 21.3572 11.5424 21.4591 11.5424H25.5965C26.0866 11.5424 26.5442 11.5756 26.9618 11.6454C27.0811 11.6651 27.197 11.6879 27.3101 11.7135C27.4227 11.7395 27.5324 11.7687 27.6388 11.8006C27.6916 11.8169 27.7439 11.8339 27.7952 11.8506C28.0006 11.921 28.1915 12.0043 28.3675 12.1002C28.5747 10.7351 28.3658 9.80559 27.6517 8.96391C26.8644 8.03719 25.4435 7.64062 23.6252 7.64062H18.3464C17.975 7.64062 17.6581 7.91972 17.6008 8.29966L15.4021 22.7045C15.3588 22.9894 15.5714 23.2465 15.8495 23.2465H19.1084L20.8069 12.1188Z" fill="#28356A"/>
</svg>
