<svg width="146" height="25" viewBox="0 0 146 25" fill="none" xmlns="http://www.w3.org/2000/svg">
<path d="M27.6635 18.6984L25.3623 22.2863L24.711 22.9067L23.4779 23.3923H22.3924L21.5153 22.9067L20.9248 21.9491L23.061 18.6984L25.3623 15.1645L27.6635 11.5902L33.3601 2.58008L36.2956 5.0619L29.956 15.1645L27.6635 18.6984Z" fill="white"/>
<path d="M27.6635 18.6984L25.3623 22.2863L24.711 22.9067L23.4779 23.3923H22.3924L21.5153 22.9067L20.9248 21.9491L23.061 18.6984L25.3623 15.1645L27.6635 11.5902L33.3601 2.58008L36.2956 5.0619L29.956 15.1645L27.6635 18.6984Z" fill="url(#paint0_linear_9042_21302)"/>
<g filter="url(#filter0_d_9042_21302)">
<path d="M16.8676 18.6051L14.0117 14.9902H18.2411L21.0969 18.6051L24.0182 22.112C24.0182 22.112 24.1797 22.3273 24.3125 22.4087C24.431 22.4813 24.705 22.5031 24.705 22.5031C24.705 22.5031 24.7813 22.5301 24.9884 22.4087C25.1955 22.2873 25.4571 22.112 25.4571 22.112C22.2851 26.3608 19.5607 21.8018 19.5607 21.8018L16.8676 18.6051Z" fill="white"/>
</g>
<path d="M19.95 10.3983L16.7275 7.91602L21.5003 6.96888L22.4548 12.5098L19.95 10.3983Z" fill="white"/>
<path d="M16.1655 18.6849L13.8642 22.2728L13.2129 22.8932L11.9798 23.3788H10.8943L10.0173 22.8932L9.42676 21.9356L11.563 18.6849L13.8642 15.151L16.1655 11.5767L18.1589 8.74414L21.0225 10.8483L18.458 15.151L16.1655 18.6849Z" fill="white"/>
<path d="M16.1655 18.6849L13.8642 22.2728L13.2129 22.8932L11.9798 23.3788H10.8943L10.0173 22.8932L9.42676 21.9356L11.563 18.6849L13.8642 15.151L16.1655 11.5767L18.1589 8.74414L21.0225 10.8483L18.458 15.151L16.1655 18.6849Z" fill="url(#paint1_linear_9042_21302)"/>
<g filter="url(#filter1_d_9042_21302)">
<path d="M5.55402 18.6051L0.5 11.5508H4.72933L9.58251 18.6051L12.5038 22.112C12.5038 22.112 12.6653 22.3273 12.7981 22.4088C12.9166 22.4813 13.1905 22.5032 13.1905 22.5032C13.1905 22.5032 13.2668 22.5301 13.4739 22.4088C13.681 22.2874 13.9427 22.112 13.9427 22.112C10.7707 26.3608 8.16547 22.112 8.16547 22.112L5.55402 18.6051Z" fill="white"/>
</g>
<path d="M35.2224 4.28311L32 1.80078L36.7727 0.853645L37.7273 6.39461L35.2224 4.28311Z" fill="white"/>
<path d="M44.4297 5.84375H47.1836L50.4297 14.5039C50.6406 15.0742 50.8164 15.5742 50.957 16.0039C51.1055 16.4336 51.2344 16.8359 51.3438 17.2109C51.6172 16.3047 51.9023 15.418 52.1992 14.5508C52.2383 14.4414 52.2656 14.3672 52.2812 14.3281L55.7266 5.16406L59.3594 14.5039C59.5312 14.957 59.6914 15.4102 59.8398 15.8633C59.9961 16.3164 60.1406 16.7734 60.2734 17.2344C60.3516 16.8828 60.457 16.4961 60.5898 16.0742C60.7227 15.6523 60.8945 15.1523 61.1055 14.5742L64.3281 5.84375H67.1055L60.4609 23.668L56.5469 13.8828C56.375 13.4453 56.2188 13.0273 56.0781 12.6289C55.9375 12.2227 55.8125 11.8398 55.7031 11.4805C55.5703 11.9414 55.4375 12.375 55.3047 12.7812C55.1719 13.1797 55.0352 13.5625 54.8945 13.9297L51.0508 23.668L44.4297 5.84375ZM78.1914 17.8203H69.3086C69.3711 18.8594 69.6797 19.6719 70.2344 20.2578C70.7891 20.8359 71.5273 21.125 72.4492 21.125C73.2695 21.125 73.9531 20.9531 74.5 20.6094C75.0469 20.2656 75.5234 19.7109 75.9297 18.9453L78.0742 20.1406C77.4492 21.2578 76.6758 22.0898 75.7539 22.6367C74.832 23.1836 73.75 23.457 72.5078 23.457C70.7266 23.457 69.3086 22.9141 68.2539 21.8281C67.1992 20.7422 66.6719 19.293 66.6719 17.4805C66.6719 15.7383 67.2148 14.3086 68.3008 13.1914C69.3945 12.0664 70.7969 11.5039 72.5078 11.5039C74.2969 11.5039 75.6914 12.0156 76.6914 13.0391C77.6914 14.0625 78.1914 15.4961 78.1914 17.3398V17.8203ZM75.5547 16.1094C75.4531 15.3125 75.1484 14.707 74.6406 14.293C74.1328 13.8711 73.4375 13.6602 72.5547 13.6602C71.7188 13.6602 71.0469 13.8633 70.5391 14.2695C70.0312 14.6758 69.6758 15.2891 69.4727 16.1094H75.5547ZM83.3125 17.4102C83.3125 18.543 83.6016 19.457 84.1797 20.1523C84.7656 20.8477 85.5195 21.1953 86.4414 21.1953C87.4023 21.1953 88.1445 20.875 88.668 20.2344C89.1992 19.5938 89.4648 18.6836 89.4648 17.5039C89.4648 16.332 89.1875 15.418 88.6328 14.7617C88.0859 14.0977 87.332 13.7656 86.3711 13.7656C85.4102 13.7656 84.6602 14.0859 84.1211 14.7266C83.582 15.3672 83.3125 16.2617 83.3125 17.4102ZM83.3945 4.83594V13.707C83.6914 13.0039 84.1641 12.4609 84.8125 12.0781C85.4688 11.6953 86.25 11.5039 87.1562 11.5039C88.6328 11.5039 89.8281 12.0508 90.7422 13.1445C91.6641 14.2305 92.125 15.6602 92.125 17.4336C92.125 19.3008 91.6719 20.7734 90.7656 21.8516C89.8672 22.9219 88.6328 23.457 87.0625 23.457C86.2812 23.457 85.5859 23.3008 84.9766 22.9883C84.375 22.6758 83.8477 22.1992 83.3945 21.5586V23H80.8516V4.83594H83.3945ZM97.3633 23H94.8203V11.8906H97.2109V13.707C97.7188 12.9336 98.293 12.3711 98.9336 12.0195C99.582 11.6602 100.344 11.4805 101.219 11.4805C102.086 11.4805 102.805 11.6641 103.375 12.0312C103.945 12.3906 104.379 12.9414 104.676 13.6836C105.262 12.918 105.883 12.3594 106.539 12.0078C107.203 11.6562 107.957 11.4805 108.801 11.4805C109.535 11.4805 110.176 11.6172 110.723 11.8906C111.27 12.1562 111.695 12.5469 112 13.0625C112.141 13.3047 112.242 13.5938 112.305 13.9297C112.375 14.2656 112.41 14.7461 112.41 15.3711V16.2617V23H109.867V17.293C109.867 15.8008 109.707 14.8203 109.387 14.3516C109.074 13.875 108.512 13.6367 107.699 13.6367C106.699 13.6367 105.984 13.957 105.555 14.5977C105.133 15.2305 104.922 16.3438 104.922 17.9375V23H102.355V17.293C102.355 15.918 102.188 14.9648 101.852 14.4336C101.523 13.9023 100.953 13.6367 100.141 13.6367C99.6406 13.6367 99.1836 13.75 98.7695 13.9766C98.3555 14.2031 98.0273 14.5156 97.7852 14.9141C97.6289 15.1719 97.5195 15.4883 97.457 15.8633C97.3945 16.2383 97.3633 16.9297 97.3633 17.9375V23ZM126.273 23H123.73V21.5586C123.277 22.1992 122.746 22.6758 122.137 22.9883C121.535 23.3008 120.844 23.457 120.062 23.457C118.492 23.457 117.254 22.9219 116.348 21.8516C115.449 20.7734 115 19.3008 115 17.4336C115 15.6602 115.461 14.2305 116.383 13.1445C117.305 12.0508 118.508 11.5039 119.992 11.5039C120.898 11.5039 121.672 11.6953 122.312 12.0781C122.961 12.4531 123.434 12.9961 123.73 13.707V11.8906H126.273V23ZM123.801 17.4102C123.801 16.2617 123.531 15.3672 122.992 14.7266C122.461 14.0859 121.715 13.7656 120.754 13.7656C119.793 13.7656 119.035 14.0977 118.48 14.7617C117.934 15.418 117.66 16.332 117.66 17.5039C117.66 18.6836 117.926 19.5938 118.457 20.2344C118.988 20.875 119.738 21.1953 120.707 21.1953C121.621 21.1953 122.363 20.8477 122.934 20.1523C123.512 19.457 123.801 18.543 123.801 17.4102ZM130.551 23H127.738L131.945 17.0234L128.348 11.8906H131.148L132.707 14.1875C132.871 14.4219 133.016 14.6484 133.141 14.8672C133.266 15.0859 133.379 15.3086 133.48 15.5352C133.574 15.3477 133.68 15.1523 133.797 14.9492C133.922 14.7383 134.078 14.4766 134.266 14.1641L135.812 11.8906H138.59L134.992 17.0469L139.164 23H136.387L134.324 20.082L134.23 19.9414C133.832 19.3398 133.574 18.8789 133.457 18.5586C133.301 18.8555 133.148 19.1328 133 19.3906C132.859 19.6406 132.715 19.875 132.566 20.0938L130.551 23ZM140.441 7.08594C140.441 6.65625 140.598 6.28516 140.91 5.97266C141.23 5.66016 141.609 5.50391 142.047 5.50391C142.5 5.50391 142.875 5.65625 143.172 5.96094C143.477 6.25781 143.629 6.63281 143.629 7.08594C143.629 7.53906 143.477 7.92187 143.172 8.23438C142.867 8.53906 142.492 8.69141 142.047 8.69141C141.609 8.69141 141.23 8.53516 140.91 8.22266C140.598 7.90234 140.441 7.52344 140.441 7.08594ZM140.781 23V11.8906H143.324V23H140.781Z" fill="white"/>
<defs>
<filter id="filter0_d_9042_21302" x="13.718" y="14.5007" width="12.4243" height="9.91261" filterUnits="userSpaceOnUse" color-interpolation-filters="sRGB">
<feFlood flood-opacity="0" result="BackgroundImageFix"/>
<feColorMatrix in="SourceAlpha" type="matrix" values="0 0 0 0 0 0 0 0 0 0 0 0 0 0 0 0 0 0 127 0" result="hardAlpha"/>
<feOffset dx="0.195804"/>
<feGaussianBlur stdDeviation="0.244755"/>
<feComposite in2="hardAlpha" operator="out"/>
<feColorMatrix type="matrix" values="0 0 0 0 0 0 0 0 0 0 0 0 0 0 0 0 0 0 0.25 0"/>
<feBlend mode="normal" in2="BackgroundImageFix" result="effect1_dropShadow_9042_21302"/>
<feBlend mode="normal" in="SourceGraphic" in2="effect1_dropShadow_9042_21302" result="shape"/>
</filter>
<filter id="filter1_d_9042_21302" x="0.206294" y="11.0613" width="14.4214" height="13.4282" filterUnits="userSpaceOnUse" color-interpolation-filters="sRGB">
<feFlood flood-opacity="0" result="BackgroundImageFix"/>
<feColorMatrix in="SourceAlpha" type="matrix" values="0 0 0 0 0 0 0 0 0 0 0 0 0 0 0 0 0 0 127 0" result="hardAlpha"/>
<feOffset dx="0.195804"/>
<feGaussianBlur stdDeviation="0.244755"/>
<feComposite in2="hardAlpha" operator="out"/>
<feColorMatrix type="matrix" values="0 0 0 0 0 0 0 0 0 0 0 0 0 0 0 0 0 0 0.25 0"/>
<feBlend mode="normal" in2="BackgroundImageFix" result="effect1_dropShadow_9042_21302"/>
<feBlend mode="normal" in="SourceGraphic" in2="effect1_dropShadow_9042_21302" result="shape"/>
</filter>
<linearGradient id="paint0_linear_9042_21302" x1="22.6442" y1="22.5021" x2="33.9695" y2="15.1073" gradientUnits="userSpaceOnUse">
<stop stop-color="#F9FAFB"/>
<stop offset="1" stop-color="#F9FAFB" stop-opacity="0.5"/>
</linearGradient>
<linearGradient id="paint1_linear_9042_21302" x1="11.1462" y1="22.4886" x2="22.4714" y2="15.0938" gradientUnits="userSpaceOnUse">
<stop stop-color="#F9FAFB"/>
<stop offset="1" stop-color="#F9FAFB" stop-opacity="0.5"/>
</linearGradient>
</defs>
</svg>
