<svg width="146" height="25" viewBox="0 0 146 25" fill="none" xmlns="http://www.w3.org/2000/svg">
<path d="M28.1635 18.6984L25.8623 22.2863L25.211 22.9067L23.9779 23.3923H22.8924L22.0153 22.9067L21.4248 21.9491L23.561 18.6984L25.8623 15.1645L28.1635 11.5902L33.8601 2.58008L36.7956 5.0619L30.456 15.1645L28.1635 18.6984Z" fill="white"/>
<path d="M28.1635 18.6984L25.8623 22.2863L25.211 22.9067L23.9779 23.3923H22.8924L22.0153 22.9067L21.4248 21.9491L23.561 18.6984L25.8623 15.1645L28.1635 11.5902L33.8601 2.58008L36.7956 5.0619L30.456 15.1645L28.1635 18.6984Z" fill="url(#paint0_linear_9220_20412)"/>
<g filter="url(#filter0_d_9220_20412)">
<path d="M17.3676 18.6051L14.5117 14.9902H18.7411L21.5969 18.6051L24.5182 22.112C24.5182 22.112 24.6797 22.3273 24.8125 22.4087C24.931 22.4813 25.205 22.5031 25.205 22.5031C25.205 22.5031 25.2813 22.5301 25.4884 22.4087C25.6955 22.2873 25.9571 22.112 25.9571 22.112C22.7851 26.3608 20.0607 21.8018 20.0607 21.8018L17.3676 18.6051Z" fill="white"/>
</g>
<path d="M20.45 10.3983L17.2275 7.91602L22.0003 6.96888L22.9548 12.5098L20.45 10.3983Z" fill="white"/>
<path d="M16.6655 18.6849L14.3642 22.2728L13.7129 22.8932L12.4798 23.3788H11.3943L10.5173 22.8932L9.92676 21.9356L12.063 18.6849L14.3642 15.151L16.6655 11.5767L18.6589 8.74414L21.5225 10.8483L18.958 15.151L16.6655 18.6849Z" fill="white"/>
<path d="M16.6655 18.6849L14.3642 22.2728L13.7129 22.8932L12.4798 23.3788H11.3943L10.5173 22.8932L9.92676 21.9356L12.063 18.6849L14.3642 15.151L16.6655 11.5767L18.6589 8.74414L21.5225 10.8483L18.958 15.151L16.6655 18.6849Z" fill="url(#paint1_linear_9220_20412)"/>
<g filter="url(#filter1_d_9220_20412)">
<path d="M6.05402 18.6051L1 11.5508H5.22933L10.0825 18.6051L13.0038 22.112C13.0038 22.112 13.1653 22.3273 13.2981 22.4088C13.4166 22.4813 13.6905 22.5032 13.6905 22.5032C13.6905 22.5032 13.7668 22.5301 13.9739 22.4088C14.181 22.2874 14.4427 22.112 14.4427 22.112C11.2707 26.3608 8.66547 22.112 8.66547 22.112L6.05402 18.6051Z" fill="white"/>
</g>
<path d="M35.7224 4.28311L32.5 1.80078L37.2727 0.853645L38.2273 6.39461L35.7224 4.28311Z" fill="white"/>
<path d="M44.9297 5.84375H47.6836L50.9297 14.5039C51.1406 15.0742 51.3164 15.5742 51.457 16.0039C51.6055 16.4336 51.7344 16.8359 51.8438 17.2109C52.1172 16.3047 52.4023 15.418 52.6992 14.5508C52.7383 14.4414 52.7656 14.3672 52.7812 14.3281L56.2266 5.16406L59.8594 14.5039C60.0312 14.957 60.1914 15.4102 60.3398 15.8633C60.4961 16.3164 60.6406 16.7734 60.7734 17.2344C60.8516 16.8828 60.957 16.4961 61.0898 16.0742C61.2227 15.6523 61.3945 15.1523 61.6055 14.5742L64.8281 5.84375H67.6055L60.9609 23.668L57.0469 13.8828C56.875 13.4453 56.7188 13.0273 56.5781 12.6289C56.4375 12.2227 56.3125 11.8398 56.2031 11.4805C56.0703 11.9414 55.9375 12.375 55.8047 12.7812C55.6719 13.1797 55.5352 13.5625 55.3945 13.9297L51.5508 23.668L44.9297 5.84375ZM78.6914 17.8203H69.8086C69.8711 18.8594 70.1797 19.6719 70.7344 20.2578C71.2891 20.8359 72.0273 21.125 72.9492 21.125C73.7695 21.125 74.4531 20.9531 75 20.6094C75.5469 20.2656 76.0234 19.7109 76.4297 18.9453L78.5742 20.1406C77.9492 21.2578 77.1758 22.0898 76.2539 22.6367C75.332 23.1836 74.25 23.457 73.0078 23.457C71.2266 23.457 69.8086 22.9141 68.7539 21.8281C67.6992 20.7422 67.1719 19.293 67.1719 17.4805C67.1719 15.7383 67.7148 14.3086 68.8008 13.1914C69.8945 12.0664 71.2969 11.5039 73.0078 11.5039C74.7969 11.5039 76.1914 12.0156 77.1914 13.0391C78.1914 14.0625 78.6914 15.4961 78.6914 17.3398V17.8203ZM76.0547 16.1094C75.9531 15.3125 75.6484 14.707 75.1406 14.293C74.6328 13.8711 73.9375 13.6602 73.0547 13.6602C72.2188 13.6602 71.5469 13.8633 71.0391 14.2695C70.5312 14.6758 70.1758 15.2891 69.9727 16.1094H76.0547ZM83.8125 17.4102C83.8125 18.543 84.1016 19.457 84.6797 20.1523C85.2656 20.8477 86.0195 21.1953 86.9414 21.1953C87.9023 21.1953 88.6445 20.875 89.168 20.2344C89.6992 19.5938 89.9648 18.6836 89.9648 17.5039C89.9648 16.332 89.6875 15.418 89.1328 14.7617C88.5859 14.0977 87.832 13.7656 86.8711 13.7656C85.9102 13.7656 85.1602 14.0859 84.6211 14.7266C84.082 15.3672 83.8125 16.2617 83.8125 17.4102ZM83.8945 4.83594V13.707C84.1914 13.0039 84.6641 12.4609 85.3125 12.0781C85.9688 11.6953 86.75 11.5039 87.6562 11.5039C89.1328 11.5039 90.3281 12.0508 91.2422 13.1445C92.1641 14.2305 92.625 15.6602 92.625 17.4336C92.625 19.3008 92.1719 20.7734 91.2656 21.8516C90.3672 22.9219 89.1328 23.457 87.5625 23.457C86.7812 23.457 86.0859 23.3008 85.4766 22.9883C84.875 22.6758 84.3477 22.1992 83.8945 21.5586V23H81.3516V4.83594H83.8945ZM97.8633 23H95.3203V11.8906H97.7109V13.707C98.2188 12.9336 98.793 12.3711 99.4336 12.0195C100.082 11.6602 100.844 11.4805 101.719 11.4805C102.586 11.4805 103.305 11.6641 103.875 12.0312C104.445 12.3906 104.879 12.9414 105.176 13.6836C105.762 12.918 106.383 12.3594 107.039 12.0078C107.703 11.6562 108.457 11.4805 109.301 11.4805C110.035 11.4805 110.676 11.6172 111.223 11.8906C111.77 12.1562 112.195 12.5469 112.5 13.0625C112.641 13.3047 112.742 13.5938 112.805 13.9297C112.875 14.2656 112.91 14.7461 112.91 15.3711V16.2617V23H110.367V17.293C110.367 15.8008 110.207 14.8203 109.887 14.3516C109.574 13.875 109.012 13.6367 108.199 13.6367C107.199 13.6367 106.484 13.957 106.055 14.5977C105.633 15.2305 105.422 16.3438 105.422 17.9375V23H102.855V17.293C102.855 15.918 102.688 14.9648 102.352 14.4336C102.023 13.9023 101.453 13.6367 100.641 13.6367C100.141 13.6367 99.6836 13.75 99.2695 13.9766C98.8555 14.2031 98.5273 14.5156 98.2852 14.9141C98.1289 15.1719 98.0195 15.4883 97.957 15.8633C97.8945 16.2383 97.8633 16.9297 97.8633 17.9375V23ZM126.773 23H124.23V21.5586C123.777 22.1992 123.246 22.6758 122.637 22.9883C122.035 23.3008 121.344 23.457 120.562 23.457C118.992 23.457 117.754 22.9219 116.848 21.8516C115.949 20.7734 115.5 19.3008 115.5 17.4336C115.5 15.6602 115.961 14.2305 116.883 13.1445C117.805 12.0508 119.008 11.5039 120.492 11.5039C121.398 11.5039 122.172 11.6953 122.812 12.0781C123.461 12.4531 123.934 12.9961 124.23 13.707V11.8906H126.773V23ZM124.301 17.4102C124.301 16.2617 124.031 15.3672 123.492 14.7266C122.961 14.0859 122.215 13.7656 121.254 13.7656C120.293 13.7656 119.535 14.0977 118.98 14.7617C118.434 15.418 118.16 16.332 118.16 17.5039C118.16 18.6836 118.426 19.5938 118.957 20.2344C119.488 20.875 120.238 21.1953 121.207 21.1953C122.121 21.1953 122.863 20.8477 123.434 20.1523C124.012 19.457 124.301 18.543 124.301 17.4102ZM131.051 23H128.238L132.445 17.0234L128.848 11.8906H131.648L133.207 14.1875C133.371 14.4219 133.516 14.6484 133.641 14.8672C133.766 15.0859 133.879 15.3086 133.98 15.5352C134.074 15.3477 134.18 15.1523 134.297 14.9492C134.422 14.7383 134.578 14.4766 134.766 14.1641L136.312 11.8906H139.09L135.492 17.0469L139.664 23H136.887L134.824 20.082L134.73 19.9414C134.332 19.3398 134.074 18.8789 133.957 18.5586C133.801 18.8555 133.648 19.1328 133.5 19.3906C133.359 19.6406 133.215 19.875 133.066 20.0938L131.051 23ZM140.941 7.08594C140.941 6.65625 141.098 6.28516 141.41 5.97266C141.73 5.66016 142.109 5.50391 142.547 5.50391C143 5.50391 143.375 5.65625 143.672 5.96094C143.977 6.25781 144.129 6.63281 144.129 7.08594C144.129 7.53906 143.977 7.92187 143.672 8.23438C143.367 8.53906 142.992 8.69141 142.547 8.69141C142.109 8.69141 141.73 8.53516 141.41 8.22266C141.098 7.90234 140.941 7.52344 140.941 7.08594ZM141.281 23V11.8906H143.824V23H141.281Z" fill="white"/>
<defs>
<filter id="filter0_d_9220_20412" x="14.218" y="14.5007" width="12.4243" height="9.91261" filterUnits="userSpaceOnUse" color-interpolation-filters="sRGB">
<feFlood flood-opacity="0" result="BackgroundImageFix"/>
<feColorMatrix in="SourceAlpha" type="matrix" values="0 0 0 0 0 0 0 0 0 0 0 0 0 0 0 0 0 0 127 0" result="hardAlpha"/>
<feOffset dx="0.195804"/>
<feGaussianBlur stdDeviation="0.244755"/>
<feComposite in2="hardAlpha" operator="out"/>
<feColorMatrix type="matrix" values="0 0 0 0 0 0 0 0 0 0 0 0 0 0 0 0 0 0 0.25 0"/>
<feBlend mode="normal" in2="BackgroundImageFix" result="effect1_dropShadow_9220_20412"/>
<feBlend mode="normal" in="SourceGraphic" in2="effect1_dropShadow_9220_20412" result="shape"/>
</filter>
<filter id="filter1_d_9220_20412" x="0.706294" y="11.0613" width="14.4214" height="13.4282" filterUnits="userSpaceOnUse" color-interpolation-filters="sRGB">
<feFlood flood-opacity="0" result="BackgroundImageFix"/>
<feColorMatrix in="SourceAlpha" type="matrix" values="0 0 0 0 0 0 0 0 0 0 0 0 0 0 0 0 0 0 127 0" result="hardAlpha"/>
<feOffset dx="0.195804"/>
<feGaussianBlur stdDeviation="0.244755"/>
<feComposite in2="hardAlpha" operator="out"/>
<feColorMatrix type="matrix" values="0 0 0 0 0 0 0 0 0 0 0 0 0 0 0 0 0 0 0.25 0"/>
<feBlend mode="normal" in2="BackgroundImageFix" result="effect1_dropShadow_9220_20412"/>
<feBlend mode="normal" in="SourceGraphic" in2="effect1_dropShadow_9220_20412" result="shape"/>
</filter>
<linearGradient id="paint0_linear_9220_20412" x1="23.1442" y1="22.5021" x2="34.4695" y2="15.1073" gradientUnits="userSpaceOnUse">
<stop stop-color="#F9FAFB"/>
<stop offset="1" stop-color="#F9FAFB" stop-opacity="0.5"/>
</linearGradient>
<linearGradient id="paint1_linear_9220_20412" x1="11.6462" y1="22.4886" x2="22.9714" y2="15.0938" gradientUnits="userSpaceOnUse">
<stop stop-color="#F9FAFB"/>
<stop offset="1" stop-color="#F9FAFB" stop-opacity="0.5"/>
</linearGradient>
</defs>
</svg>
