<svg width="25" height="24" viewBox="0 0 25 24" fill="none" xmlns="http://www.w3.org/2000/svg">
<rect x="0.5" width="24" height="24" rx="12" fill="#FEF0C7"/>
<g clip-path="url(#clip0_7536_44034)">
<path d="M12.4999 9.99998V12M12.4999 14H12.5049M11.6449 7.42998L7.40989 14.5C7.32257 14.6512 7.27637 14.8226 7.27588 14.9972C7.27539 15.1719 7.32063 15.3435 7.4071 15.4952C7.49357 15.6469 7.61825 15.7734 7.76874 15.8619C7.91923 15.9505 8.09029 15.9981 8.26489 16H16.7349C16.9095 15.9981 17.0805 15.9505 17.231 15.8619C17.3815 15.7734 17.5062 15.6469 17.5927 15.4952C17.6791 15.3435 17.7244 15.1719 17.7239 14.9972C17.7234 14.8226 17.6772 14.6512 17.5899 14.5L13.3549 7.42998C13.2658 7.28303 13.1402 7.16154 12.9905 7.07722C12.8407 6.9929 12.6718 6.94861 12.4999 6.94861C12.328 6.94861 12.1591 6.9929 12.0093 7.07722C11.8595 7.16154 11.734 7.28303 11.6449 7.42998Z" stroke="#DC6803" stroke-linecap="round" stroke-linejoin="round"/>
</g>
<defs>
<clipPath id="clip0_7536_44034">
<rect width="12" height="12" fill="white" transform="translate(6.5 6)"/>
</clipPath>
</defs>
</svg>
