<svg width="56" height="56" viewBox="0 0 56 56" fill="none" xmlns="http://www.w3.org/2000/svg">
<rect x="4" y="4" width="48" height="48" rx="24" fill="#D1E9FF"/>
<rect x="4" y="4" width="48" height="48" rx="24" stroke="#EFF8FF" stroke-width="8"/>
<path d="M31.5003 23.5L35.0003 20M37.0003 18L35.0003 20L37.0003 18ZM27.3903 27.61C27.9066 28.1195 28.3171 28.726 28.598 29.3948C28.879 30.0635 29.0249 30.7813 29.0273 31.5066C29.0297 32.232 28.8887 32.9507 28.6122 33.6213C28.3357 34.2919 27.9293 34.9012 27.4164 35.4141C26.9035 35.9271 26.2942 36.3334 25.6236 36.6099C24.953 36.8864 24.2343 37.0275 23.5089 37.025C22.7835 37.0226 22.0658 36.8767 21.3971 36.5958C20.7283 36.3148 20.1217 35.9043 19.6123 35.388C18.6104 34.3507 18.056 32.9614 18.0686 31.5193C18.0811 30.0772 18.6595 28.6977 19.6793 27.678C20.699 26.6583 22.0785 26.0798 23.5206 26.0673C24.9627 26.0548 26.352 26.6091 27.3893 27.611L27.3903 27.61ZM27.3903 27.61L31.5003 23.5L27.3903 27.61ZM31.5003 23.5L34.5003 26.5L38.0003 23L35.0003 20L31.5003 23.5Z" stroke="#1570EF" stroke-width="2" stroke-linecap="round" stroke-linejoin="round"/>
</svg>
